<svg viewBox="0 0 24 24" xmlns="http://www.w3.org/2000/svg">
    <path fill="currentColor" transform="translate(-444.000000, -1630.000000)" d="M467.991849,1633.82189 C467.989117,1633.67013 467.986706,1633.53909 467.986706,1633.42857 L463.656406,1633.42857 C463.739975,1631.57409 463.683834,1630 463.683834,1630 C463.683834,1630 458.563061,1630 456.046521,1630 C455.975273,1630.00118 455.957488,1630 455.939382,1630 C453.422842,1630 448.282623,1630 448.282623,1630 C448.282623,1630 448.226482,1631.57409 448.310051,1633.42857 L444.012428,1633.42857 L444,1634.52936 C444,1634.53343 444,1634.73793 444,1635.14286 C444.05207,1636.54086 444.275401,1638.41066 445.204995,1640.32477 C445.993433,1641.94836 447.128787,1643.30677 448.579666,1644.36229 C449.780804,1645.23614 451.153204,1645.86571 452.661939,1646.24179 C453.533249,1647.17173 454.392505,1647.68441 455.14248,1647.89055 L455.14248,1649.79904 C455.035341,1650.36598 454.385006,1652.28571 449.851623,1652.28571 L449.142683,1652.28571 L449.142683,1654 L462.856505,1654 L462.856505,1652.28571 L462.150564,1652.28571 C456.831959,1652.28571 456.856708,1649.64282 456.856708,1649.64282 L456.856708,1647.89029 C457.606682,1647.68441 458.449332,1647.17382 459.316089,1646.24864 C460.835805,1645.87343 462.212705,1645.24145 463.421289,1644.36223 C464.872062,1643.30671 466.006666,1641.9483 466.795104,1640.32471 C468.063632,1637.71252 468.016652,1635.18159 467.991849,1633.82189 Z M446.746086,1639.57562 C445.971469,1637.98032 445.768762,1636.37479 445.724245,1635.14286 L448.428814,1635.14286 C448.475313,1635.62039 448.534132,1636.09112 448.608594,1636.53464 C449.064632,1639.2512 449.691397,1641.65034 450.877482,1643.76727 C449.064793,1642.849 447.641127,1641.4187 446.746086,1639.57562 Z M465.253049,1639.57562 C464.352704,1641.42973 462.917253,1642.86604 461.089136,1643.78366 C462.279185,1641.66271 462.900646,1639.25821 463.357916,1636.5347 C463.432378,1636.09112 463.491198,1635.62039 463.537696,1635.14291 L466.274889,1635.14291 C466.230373,1636.37479 466.027719,1637.98032 465.253049,1639.57562 Z"></path>
</svg>