<svg viewBox="0 0 24 24" xmlns="http://www.w3.org/2000/svg">
    <path fill="currentColor" transform="translate(-626.000000, -1688.000000)" d="M638.005763,1711.15769 C639.673871,1711.15769 641.261171,1710.82885 642.6984,1710.24038 C642.733032,1710.22308 642.761892,1710.21154 642.796524,1710.2 C642.802296,1710.2 642.808068,1710.2 642.808068,1710.19423 C643.010088,1710.11923 643.229424,1710.07885 643.454532,1710.07885 C643.702728,1710.07885 643.93938,1710.125 644.152944,1710.21731 L649.001425,1712 L647.725813,1706.9 C647.725813,1706.59423 647.812393,1706.30577 647.950921,1706.05769 C647.950921,1706.05769 647.950921,1706.05769 647.950921,1706.05769 C647.997097,1705.98269 648.043273,1705.90769 648.095221,1705.84423 C649.301569,1704.03846 649.999981,1701.89231 649.999981,1699.59038 C650.011525,1693.18654 644.637792,1688 638.005763,1688 C631.373733,1688 626,1693.18654 626,1699.57885 C626,1705.97692 631.373733,1711.15769 638.005763,1711.15769 Z"></path>
</svg>