<svg viewBox="0 0 18 28" xmlns="http://www.w3.org/2000/svg" xmlns:xlink="http://www.w3.org/1999/xlink">
    <path fill="currentColor" d="M18,8.80625 C18,10.75 17.175,12.5 16.1125,14 L16.11875,14 C15.4375,14.9375 14.78125,15.73125 14.15,16.8125 C12.775,19.175 13,21.35625 13,21.9125 L13,22 L11,22 L11,14 L13,10 L11.96875,10 L10.00625,14 L10.00625,22 L8.00625,22 L8.00625,14 L6.04375,10 L5.00625,10 L7.00625,14 L7.00625,22 L5.00625,22 L5.00625,21.9125 C5,21.45625 5.2125,19.175 3.8375,16.8125 C3.20625,15.73125 2.55,14.9375 1.86875,14 L1.8875,14 C0.825,12.5 0,10.75 0,8.8125 C0,3.94375 4.13125,0 9,0 C13.86875,0 18,3.94375 18,8.80625 Z M7,27 L11,27 L11,28 L7,28 L7,27 Z M6,25 L12,25 L12,26 L6,26 L6,25 Z M6,23 L12,23 L12,24 L6,24 L6,23 Z"></path>
</svg>