<svg viewBox="0 0 24 24" xmlns="http://www.w3.org/2000/svg">
    <path fill="currentColor" transform="translate(-322.000000, -1683.000000)" d="M345.702012,1692.84591 C346.214508,1692.3137 346.043676,1691.78149 345.360347,1691.69278 L339.210385,1690.71706 C338.527056,1690.62836 337.672894,1690.00745 337.33123,1689.29783 L334.597913,1683.53221 C334.256248,1682.8226 333.743752,1682.8226 333.402087,1683.53221 L330.66877,1689.29783 C330.327106,1690.00745 329.472944,1690.62836 328.789615,1690.71706 L324.945889,1691.33798 L322.639653,1691.69278 C321.956324,1691.78149 321.785492,1692.3137 322.297988,1692.84591 L323.664647,1694.17644 L326.825044,1697.36971 C327.166709,1697.72451 327.422957,1698.25672 327.508373,1698.87764 C327.593789,1699.14374 327.593789,1699.49855 327.508373,1699.76466 L326.91046,1703.22403 L326.397963,1706.15119 C326.312547,1706.86081 326.654212,1707.21561 327.337541,1706.86081 L332.804174,1703.84494 C333.316671,1703.57884 334.170832,1703.49014 334.768745,1703.66754 C334.939578,1703.66754 335.024994,1703.75624 335.11041,1703.84494 L337.502062,1705.17547 L340.662459,1706.86081 C341.260372,1707.21561 341.687453,1706.86081 341.602037,1706.15119 L340.577043,1699.76466 C340.491627,1699.05504 340.747875,1697.99062 341.260372,1697.45841 L345.702012,1692.84591 L345.702012,1692.84591 Z"></path>
</svg>