<svg width="0" height="0" style="position:absolute"><symbol viewBox="0 0 20 20" id="icon-arrow" xmlns="http://www.w3.org/2000/svg"><path fill="currentColor" d="M10 0L8.238 1.763l6.974 6.987H0v2.5h15.212l-6.974 6.987L10 20l10-10z"/></symbol><symbol viewBox="0 0 24 24" id="icon-awards" xmlns="http://www.w3.org/2000/svg"><path fill="currentColor" d="M23.992 3.822c-.003-.152-.005-.283-.005-.393h-4.33C19.74 1.574 19.683 0 19.683 0H4.283s-.057 1.574.027 3.429H.012L0 4.529v.614C.052 6.54.275 8.41 1.205 10.325a10.741 10.741 0 0 0 3.375 4.037 11.7 11.7 0 0 0 4.082 1.88c.871.93 1.73 1.442 2.48 1.649v1.908c-.107.567-.757 2.487-5.29 2.487h-.71V24h13.715v-1.714h-.706c-5.319 0-5.294-2.643-5.294-2.643V17.89c.75-.206 1.592-.716 2.46-1.641a11.682 11.682 0 0 0 4.104-1.887 10.74 10.74 0 0 0 3.374-4.037c1.269-2.612 1.222-5.143 1.197-6.503zM2.746 9.576C1.971 7.98 1.77 6.375 1.724 5.143H4.43c.046.477.105.948.18 1.392.456 2.716 1.082 5.115 2.268 7.232a9.107 9.107 0 0 1-4.13-4.191zm18.507 0a9.11 9.11 0 0 1-4.164 4.208c1.19-2.121 1.812-4.526 2.269-7.25.074-.443.133-.914.18-1.391h2.737c-.045 1.232-.247 2.837-1.022 4.433z"/></symbol><symbol viewBox="0 0 12 24" id="icon-bookmark" xmlns="http://www.w3.org/2000/svg"><path fill="currentColor" d="M11.5 0c.275 0 .5.225.5.5V4H0V.5C0 .225.225 0 .5 0h11zM0 24V5h12v19l-6-6-6 6z"/></symbol><symbol viewBox="0 0 24 24" id="icon-chat" xmlns="http://www.w3.org/2000/svg"><path fill="currentColor" d="M12.006 23.158a12.368 12.368 0 0 0 4.79-.958c.006 0 .012 0 .012-.006a1.86 1.86 0 0 1 1.345.023L23 24l-1.275-5.1c0-.306.086-.594.225-.842.046-.075.092-.15.144-.214A11.212 11.212 0 0 0 24 11.59C24.012 5.187 18.638 0 12.006 0S0 5.187 0 11.579c0 6.398 5.374 11.579 12.006 11.579z"/></symbol><symbol viewBox="0 0 14 10" id="icon-check" xmlns="http://www.w3.org/2000/svg"><path fill="currentColor" d="M5.222 9.444L.778 5l1.258-1.258L5.222 6.93 11.964.187l1.258 1.257z"/></symbol><symbol viewBox="0 0 24 24" id="icon-checkmark" xmlns="http://www.w3.org/2000/svg"><path fill="currentColor" d="M12 0C5.371 0 0 5.371 0 12s5.371 12 12 12 12-5.371 12-12S18.629 0 12 0zm-1.852 16.252c-.138.138-.335.254-.508.254s-.369-.121-.513-.26l-3.23-3.23 1.026-1.028 2.723 2.724 7.2-7.252 1.01 1.044-7.708 7.748z"/></symbol><symbol viewBox="0 0 28 16" id="icon-chevron" xmlns="http://www.w3.org/2000/svg"><path fill="currentColor" d="M14 10.647L24.89.193a.712.712 0 0 1 .987.013l1.913 1.869a.678.678 0 0 1 .012.97L14.506 15.81a.652.652 0 0 1-.506.187.691.691 0 0 1-.506-.187L.198 3.044a.678.678 0 0 1 .012-.969L2.123.205a.712.712 0 0 1 .988-.012L14 10.647z"/></symbol><symbol viewBox="0 0 48 48" id="icon-close" xmlns="http://www.w3.org/2000/svg"><path fill="currentColor" d="M38 12.83L35.17 10 24 21.17 12.83 10 10 12.83 21.17 24 10 35.17 12.83 38 24 26.83 35.17 38 38 35.17 26.83 24z"/></symbol><symbol viewBox="0 0 18 28" id="icon-lightbulb" xmlns="http://www.w3.org/2000/svg"><path fill="currentColor" d="M18 8.806c0 1.944-.825 3.694-1.887 5.194h.006c-.681.938-1.338 1.731-1.969 2.813-1.375 2.362-1.15 4.543-1.15 5.1V22h-2v-8l2-4h-1.031l-1.963 4v8h-2v-8l-1.962-4H5.006l2 4v8h-2v-.087c-.006-.457.207-2.738-1.169-5.1C3.208 15.73 2.55 14.938 1.87 14h.018C.825 12.5 0 10.75 0 8.812 0 3.944 4.131 0 9 0s9 3.944 9 8.806zM7 27h4v1H7v-1zm-1-2h6v1H6v-1zm0-2h6v1H6v-1z"/></symbol><symbol viewBox="0 0 24 24" id="icon-pencil" xmlns="http://www.w3.org/2000/svg"><path fill="currentColor" d="M7.018 21.834l-4.852-4.852L15.577 3.571l4.852 4.852L7.018 21.834zM23.557 3.021c.628.628.583 1.69-.1 2.374l-2.421 2.421-4.852-4.852L18.606.543c.682-.683 1.745-.728 2.373-.1l2.578 2.578zM1.715 17.746l4.539 4.539L0 24l1.715-6.254z"/></symbol><symbol viewBox="0 0 20 24" id="icon-play" xmlns="http://www.w3.org/2000/svg"><path fill="currentColor" d="M19.325 10.556L1.925.2a1.312 1.312 0 0 0-.681-.2C.563 0 .006.563.006 1.25H0v21.5h.006c0 .688.556 1.25 1.238 1.25.256 0 .468-.088.7-.213l17.381-10.343a1.883 1.883 0 0 0 0-2.887z"/></symbol><symbol viewBox="0 0 24 24" id="icon-star" xmlns="http://www.w3.org/2000/svg"><path fill="currentColor" d="M23.702 9.846c.513-.532.342-1.065-.342-1.153l-6.15-.976c-.683-.089-1.537-.71-1.879-1.42L12.598.533c-.342-.71-.854-.71-1.196 0L8.67 6.298c-.342.71-1.196 1.33-1.88 1.42l-3.843.62-2.306.355c-.684.088-.855.62-.342 1.153l1.367 1.33 3.16 3.194c.342.355.598.887.683 1.508.086.266.086.62 0 .887l-.598 3.459-.512 2.927c-.085.71.256 1.065.94.71l5.466-3.016c.513-.266 1.367-.355 1.965-.177.17 0 .256.088.341.177l2.392 1.33 3.16 1.686c.598.355 1.025 0 .94-.71l-1.025-6.386c-.085-.71.17-1.774.683-2.307l4.442-4.612z"/></symbol></svg>